<?xml version="1.0" encoding="UTF-8"?>
<!DOCTYPE svg PUBLIC "-//W3C//DTD SVG 1.1//EN" "http://www.w3.org/Graphics/SVG/1.1/DTD/svg11.dtd">
<!-- Creator: CorelDRAW 2020 (64-Bit) -->
<svg xmlns="http://www.w3.org/2000/svg" xml:space="preserve" width="57.3449mm" height="57.345mm" version="1.1" style="shape-rendering:geometricPrecision; text-rendering:geometricPrecision; image-rendering:optimizeQuality; fill-rule:evenodd; clip-rule:evenodd"
viewBox="0 0 1957.66 1957.67"
 xmlns:xlink="http://www.w3.org/1999/xlink"
 xmlns:xodm="http://www.corel.com/coreldraw/odm/2003">
 <defs>
  <style type="text/css">
   <![CDATA[
    .fil1 {fill:#FEFEFE}
    .fil0 {fill:#2B2A29}
    .fil2 {fill:#28282A}
    .fil3 {fill:#2B2A29;fill-rule:nonzero}
   ]]>
  </style>
 </defs>
 <g id="Capa_x0020_1">
  <metadata id="CorelCorpID_0Corel-Layer"/>
  <g id="_1962450109008">
   <path class="fil0" d="M978.83 0c540.59,0 978.83,438.24 978.83,978.83 0,540.59 -438.24,978.83 -978.83,978.83 -540.59,0 -978.83,-438.24 -978.83,-978.83 0,-540.59 438.23,-978.83 978.83,-978.83z"/>
   <path class="fil1" d="M978.83 48.54c513.79,0 930.29,416.5 930.29,930.29 0,513.79 -416.51,930.29 -930.29,930.29 -513.78,0 -930.29,-416.51 -930.29,-930.29 0,-513.79 416.51,-930.29 930.29,-930.29z"/>
   <path class="fil2" d="M558.5 804.6c0,62.82 0.06,149.8 0.06,212.62l-0.06 94.29 141.96 208.99 6.88 6.98c3.32,1.77 5.18,3.88 9.14,5.37 38.35,14.39 103.38,13.95 125.73,-31.98 1.73,-4.37 9.55,-35.56 7.11,-41.35l0 -998.79 -172.41 -0.15c0,249.39 -0.35,498.97 0.11,748.58 -2.69,3.36 -5.39,2.96 -8.08,0l-110.44 -204.54z"/>
   <path class="fil2" d="M878.93 731.86l356.87 580c21.1,21.8 45.72,36.5 76.57,36.5 38.15,-0.62 71.25,-9.02 85.35,-51.29l1.44 -53.67 -1.96 -982.7 -169.11 0 -2.04 748.44 -347.11 -584.2 0 306.91z"/>
   <path class="fil3" d="M494.29 1483.91l-9.35 0c-1.94,0 -3.17,-1.02 -3.71,-3.07 -0.53,-4.19 -0.91,-7.63 -1.12,-10.32l-37.57 0 0 32.25 39.51 0 0 16.77 -39.51 0 0 32.9 37.57 0c0.21,-2.69 0.59,-6.13 1.12,-10.32 0.54,-2.04 1.78,-3.06 3.71,-3.06l9.35 0 0 30.8 -85.79 0 0 -9.51c0,-2.69 1.34,-4.36 4.04,-5l0.97 -0.16c0.32,0 0.67,-0.05 1.04,-0.16 0.38,-0.11 0.84,-0.22 1.37,-0.33l4.84 -0.8 0 -84.66 -4.84 -0.8c-0.53,-0.11 -0.99,-0.22 -1.37,-0.33 -0.38,-0.1 -0.72,-0.16 -1.04,-0.16l-0.97 -0.16c-2.69,-0.65 -4.04,-2.31 -4.04,-4.99l0 -9.52 85.79 0 0 30.64zm64.49 51.12c1.18,2.58 1.78,5.43 1.78,8.55 0,3.87 -0.75,7.58 -2.26,11.12 -1.5,3.34 -3.6,6.24 -6.28,8.71 -2.9,2.58 -6.35,4.46 -10.32,5.64 -3.87,1.4 -8.6,2.09 -14.19,2.09 -4.84,0 -9.6,-0.43 -14.27,-1.29 -4.67,-0.86 -8.67,-1.94 -12.01,-3.22l0 -23.38 9.35 0c1.94,0 3.17,1.02 3.71,3.06 0.22,1.18 0.59,4.35 1.13,9.51 2.9,0.86 7.25,1.29 13.06,1.29 2.26,0 4.3,-0.27 6.13,-0.8 1.83,-0.65 3.22,-1.4 4.19,-2.26 1.29,-1.08 2.09,-2.1 2.42,-3.07 0.43,-1.18 0.64,-2.47 0.64,-3.87 0,-1.94 -0.53,-3.49 -1.61,-4.67 -0.97,-1.07 -2.53,-2.15 -4.68,-3.23 -2.04,-0.97 -4.19,-1.77 -6.45,-2.42l-7.58 -2.42c-1.72,-0.53 -4.2,-1.55 -7.42,-3.06 -2.58,-1.18 -4.78,-2.63 -6.61,-4.36 -1.93,-1.72 -3.43,-3.87 -4.51,-6.45 -1.18,-2.68 -1.77,-5.81 -1.77,-9.35 0,-3.44 0.64,-6.67 1.94,-9.68 1.29,-3.01 3.28,-5.69 5.96,-8.06 2.69,-2.37 5.96,-4.2 9.84,-5.49 4.19,-1.4 8.65,-2.09 13.39,-2.09 4.08,0 7.68,0.29 10.8,0.89 3.11,0.59 7.57,1.74 13.38,3.46l-0.16 0 0 23.39 -9.19 0c-1.94,0 -3.17,-1.02 -3.71,-3.07 -0.32,-1.4 -0.7,-4.4 -1.13,-9.03 -2.47,-0.75 -5.7,-1.13 -9.67,-1.13 -3.87,0 -6.93,0.81 -9.2,2.42 -2.26,1.61 -3.38,3.82 -3.38,6.61 0,1.61 0.59,3.11 1.77,4.51 0.86,0.97 2.37,1.99 4.51,3.07 2.48,1.18 4.62,2.04 6.46,2.58 0.86,0.22 3.33,0.97 7.41,2.26 2.04,0.65 4.57,1.67 7.58,3.07 2.58,1.18 4.73,2.58 6.45,4.19 1.94,1.61 3.44,3.6 4.51,5.96zm40.64 36.12c-7.2,0 -12.74,-2.04 -16.61,-6.13 -3.87,-4.08 -5.81,-9.67 -5.81,-16.77l0 -46.12 -8.38 0c-0.86,0 -1.77,-0.38 -2.74,-1.13 -0.86,-0.64 -1.29,-1.66 -1.29,-3.06l0 -8.06 13.38 -2.09 4.19 -22.58c0.11,-0.97 0.59,-1.78 1.45,-2.42 0.86,-0.65 1.88,-0.97 3.07,-0.97l10.32 0 0 26.12 21.77 0 0 14.19 -21.77 0 0 44.83c0,2.47 0.65,4.46 1.94,5.96 1.29,1.4 3.01,2.1 5.16,2.1 1.51,0 2.52,-0.11 3.06,-0.33l2.1 -0.97 1.77 -0.97c0.32,-0.21 0.75,-0.32 1.29,-0.32 0.86,0 1.4,0.11 1.61,0.32l1.13 1.3 5.97 9.67c-2.8,2.26 -6.13,4.08 -10,5.48 -3.65,1.3 -7.52,1.94 -11.61,1.94zm118.04 -15.8c2.69,0.64 4.03,2.31 4.03,5l0 9.51 -24.35 0c-2.48,0 -4.14,-1.23 -4.99,-3.71l-1.45 -6.61c-1.83,1.83 -3.6,3.44 -5.32,4.84 -1.61,1.29 -3.54,2.47 -5.8,3.54 -2.15,0.97 -4.41,1.77 -6.78,2.42 -2.69,0.54 -5.21,0.8 -7.58,0.8 -4.4,0 -8.44,-0.75 -12.09,-2.25 -3.12,-1.29 -6.02,-3.5 -8.71,-6.61 -2.15,-2.48 -3.92,-5.75 -5.32,-9.84 -1.19,-4.08 -1.78,-8.33 -1.78,-12.74l0 -36.6 -8.22 -1.45c-2.69,-0.65 -4.03,-2.31 -4.03,-5l0 -9.51 32.08 0 0 52.57c0,4.95 1.18,8.87 3.55,11.77 2.26,2.69 5.75,4.04 10.48,4.04 3.23,0 6.46,-0.76 9.68,-2.26 2.91,-1.4 5.75,-3.49 8.55,-6.28l0 -43.86c-3.01,-0.54 -5,-0.89 -5.97,-1.05 -0.97,-0.16 -1.66,-0.29 -2.09,-0.4 -2.69,-0.65 -4.04,-2.31 -4.04,-5l0 -9.51 32.09 0 0 66.76 8.06 1.45zm73.37 14.19c-1.18,0 -2.26,-0.33 -3.22,-0.97 -0.86,-0.54 -1.45,-1.45 -1.77,-2.74l-1.62 -7.58c-3.22,3.65 -7.04,6.71 -11.45,9.19 -4.29,2.37 -9.41,3.55 -15.31,3.55 -4.62,0 -8.71,-0.91 -12.26,-2.75 -3.77,-1.93 -6.99,-4.68 -9.67,-8.22 -2.69,-3.44 -4.78,-7.84 -6.29,-13.23 -1.51,-5.48 -2.25,-11.5 -2.25,-18.06 0,-6.13 0.8,-11.82 2.42,-17.09 1.51,-4.95 3.92,-9.52 7.25,-13.71 2.9,-3.65 6.61,-6.66 11.13,-9.03 4.29,-2.26 9.19,-3.39 14.67,-3.39 4.63,0 8.6,0.76 11.93,2.26 3.55,1.61 6.45,3.55 8.71,5.8l0 -27.57 -4.68 -0.81c-0.53,-0.11 -0.99,-0.22 -1.37,-0.32 -0.38,-0.1 -0.72,-0.16 -1.04,-0.16l-0.97 -0.16c-2.69,-0.65 -4.04,-2.31 -4.04,-5l0 -9.51 32.09 0 0 103.68 4.19 0.65 2.1 0.48 0.97 0.16c2.68,0.64 4.03,2.31 4.03,5l0 9.51 -23.55 0zm-7.58 -61.28c-2.15,-2.68 -4.62,-4.62 -7.41,-5.81 -2.91,-1.18 -5.81,-1.77 -8.71,-1.77 -2.8,0 -5.48,0.59 -8.06,1.77 -2.37,1.08 -4.47,2.8 -6.29,5.16 -1.61,2.26 -2.91,5.16 -3.87,8.71 -0.86,3.12 -1.29,7.25 -1.29,12.41 0,5.16 0.38,9.31 1.13,12.42 0.75,3.23 1.88,5.91 3.38,8.06 1.51,2.26 3.23,3.82 5.16,4.68 2.04,0.97 4.41,1.45 7.09,1.45 4.3,0 7.85,-0.86 10.65,-2.58 3,-1.83 5.75,-4.29 8.22,-7.41l0 -37.09zm71.76 -45.31c0,1.51 -0.38,3.12 -1.13,4.84 -0.64,1.51 -1.55,2.85 -2.74,4.04 -1.29,1.29 -2.63,2.2 -4.03,2.74 -1.62,0.64 -3.28,0.97 -5,0.97 -1.72,0 -3.38,-0.32 -5,-0.97 -1.29,-0.54 -2.57,-1.45 -3.87,-2.74 -1.18,-1.18 -2.09,-2.53 -2.74,-4.04 -0.64,-1.51 -0.97,-3.11 -0.97,-4.84 0,-1.72 0.33,-3.38 0.97,-5 0.54,-1.4 1.45,-2.74 2.74,-4.03 1.19,-1.18 2.48,-2.04 3.87,-2.58 1.94,-0.75 3.6,-1.12 5,-1.12 1.4,0 3.07,0.38 5,1.12 1.61,0.65 2.96,1.51 4.03,2.58 1.29,1.29 2.21,2.63 2.74,4.03 0.76,1.83 1.13,3.5 1.13,5zm5.16 92.4c2.69,0.64 4.04,2.31 4.04,5l0 9.51 -44.35 0 0 -9.51c0,-2.69 1.34,-4.36 4.03,-5l0.97 -0.16 2.42 -0.48 4.84 -0.8 0 -50.79 -4.84 -0.81c-0.54,-0.11 -0.99,-0.22 -1.37,-0.33 -0.38,-0.1 -0.72,-0.16 -1.05,-0.16l-0.97 -0.16c-2.69,-0.65 -4.03,-2.31 -4.03,-5l0 -9.51 32.09 0 0 66.76 4.83 0.8c0.54,0.11 0.99,0.22 1.37,0.33 0.38,0.1 0.73,0.16 1.05,0.16l0.97 0.16zm50.31 -69.5c5.92,0 11.51,1.02 16.78,3.06 5.16,2.04 9.46,4.84 12.9,8.38 3.44,3.55 6.13,8.01 8.06,13.39 1.94,5.27 2.91,11.13 2.91,17.57 0,6.46 -0.97,12.36 -2.91,17.75 -2.04,5.48 -4.73,9.99 -8.06,13.54 -3.54,3.76 -7.84,6.61 -12.9,8.55 -4.95,1.94 -10.54,2.91 -16.78,2.91 -6.23,0 -11.87,-0.97 -16.93,-2.91 -5.05,-1.94 -9.35,-4.79 -12.9,-8.55 -3.76,-3.87 -6.56,-8.38 -8.38,-13.54 -1.94,-5.38 -2.9,-11.29 -2.9,-17.75 0,-6.45 0.97,-12.3 2.9,-17.57 1.83,-4.95 4.62,-9.41 8.38,-13.39 3.44,-3.55 7.74,-6.34 12.9,-8.38 5.27,-2.04 10.91,-3.06 16.93,-3.06zm0 69.82c6.89,0 11.94,-2.31 15.16,-6.93 3.33,-4.84 5,-11.61 5,-20.32 0,-8.7 -1.67,-15.48 -5,-20.32 -3.22,-4.73 -8.28,-7.09 -15.16,-7.09 -6.88,0 -12.04,2.37 -15.48,7.09 -3.43,4.73 -5.16,11.56 -5.16,20.48 0,8.71 1.72,15.43 5.16,20.16 3.33,4.62 8.49,6.93 15.48,6.93zm206.4 -92.88c0,2.68 -1.34,4.35 -4.03,4.99l-0.97 0.16c-0.33,0 -0.68,0.05 -1.05,0.16 -0.38,0.11 -0.83,0.22 -1.37,0.33l-4.68 0.8 0 100.62 -11.29 0c-1.51,0 -2.91,-0.27 -4.19,-0.81 -1.08,-0.43 -2.21,-1.4 -3.39,-2.9l-60.95 -77.56c0.21,2.37 0.32,4.03 0.32,4.99l0.16 4.68 0 55.64 10.48 1.45c2.69,0.64 4.04,2.31 4.04,5l0 9.51 -45.8 0 0 -9.51c0,-2.69 1.35,-4.36 4.04,-5l0.97 -0.16 2.41 -0.48 4.84 -0.8 0 -84.66 -4.84 -0.8c-0.53,-0.11 -1,-0.22 -1.37,-0.33 -0.37,-0.1 -0.72,-0.16 -1.04,-0.16l-0.97 -0.16c-2.69,-0.65 -4.04,-2.31 -4.04,-4.99l0 -9.52 23.55 0 2.42 0.16c0.75,0 1.34,0.16 1.77,0.48 0.43,0.1 0.91,0.43 1.45,0.97l1.61 1.93 61.27 77.89 -0.48 -5.49c-0.1,-1.18 -0.15,-2.9 -0.15,-5.16l0 -54.83 -10.48 -1.45c-2.69,-0.65 -4.03,-2.31 -4.03,-4.99l0 -9.52 45.79 0 0 9.52zm45.96 23.06c5.92,0 11.5,1.02 16.77,3.06 5.16,2.04 9.46,4.84 12.9,8.38 3.44,3.55 6.13,8.01 8.06,13.39 1.94,5.27 2.91,11.13 2.91,17.57 0,6.46 -0.97,12.36 -2.91,17.75 -2.04,5.48 -4.73,9.99 -8.06,13.54 -3.54,3.76 -7.84,6.61 -12.9,8.55 -4.95,1.94 -10.54,2.91 -16.77,2.91 -6.23,0 -11.88,-0.97 -16.93,-2.91 -5.05,-1.94 -9.35,-4.79 -12.9,-8.55 -3.76,-3.87 -6.56,-8.38 -8.38,-13.54 -1.94,-5.38 -2.9,-11.29 -2.9,-17.75 0,-6.45 0.97,-12.3 2.9,-17.57 1.83,-4.95 4.62,-9.41 8.38,-13.39 3.44,-3.55 7.74,-6.34 12.9,-8.38 5.27,-2.04 10.91,-3.06 16.93,-3.06zm0 69.82c6.88,0 11.93,-2.31 15.16,-6.93 3.34,-4.84 5,-11.61 5,-20.32 0,-8.7 -1.67,-15.48 -5,-20.32 -3.22,-4.73 -8.28,-7.09 -15.16,-7.09 -6.88,0 -12.04,2.37 -15.48,7.09 -3.43,4.73 -5.16,11.56 -5.16,20.48 0,8.71 1.72,15.43 5.16,20.16 3.34,4.62 8.49,6.93 15.48,6.93zm139.81 -59.02c0,2.69 -1.35,4.35 -4.04,5 -0.43,0 -1.08,0.11 -1.94,0.32 -0.86,0.22 -2.74,0.59 -5.64,1.13l-26.6 66.76 -18.06 0 -26.6 -66.76c-5.48,-1.08 -8.01,-1.56 -7.58,-1.45 -2.68,-0.65 -4.03,-2.31 -4.03,-5l0 -9.51 40.31 0 0 9.51c0,2.69 -1.35,4.35 -4.04,5l-4.51 0.8 11.77 32.57c0.54,1.51 1.29,4.04 2.26,7.58 0.76,2.91 1.34,5.38 1.77,7.42 0.76,-3.65 1.29,-6.13 1.61,-7.42 0.65,-2.58 1.45,-5.1 2.42,-7.58l11.93 -32.41c-2.04,-0.32 -3.35,-0.57 -3.95,-0.72 -0.59,-0.16 -1.05,-0.24 -1.37,-0.24 -2.69,-0.65 -4.04,-2.31 -4.04,-5l0 -9.51 40.32 0 0 9.51zm79.49 58.53c2.69,0.65 4.03,2.31 4.03,5l0 9.51 -19.03 0c-2.04,0 -3.55,-0.27 -4.51,-0.8 -1.08,-0.43 -1.88,-1.62 -2.42,-3.55l-1.78 -5.81c-2.15,2.04 -4.19,3.71 -6.12,5 -1.51,1.08 -3.61,2.26 -6.29,3.55 -1.94,0.86 -4.19,1.55 -6.78,2.09 -2.69,0.54 -5.37,0.81 -8.06,0.81 -3.54,0 -6.77,-0.48 -9.67,-1.45 -3.12,-1.08 -5.64,-2.48 -7.58,-4.19 -2.25,-2.04 -3.93,-4.41 -4.99,-7.09 -1.18,-2.91 -1.77,-6.13 -1.77,-9.68 0,-3.23 0.8,-6.34 2.41,-9.35 1.61,-3.11 4.35,-5.85 8.23,-8.22 4.08,-2.58 9.13,-4.63 15.16,-6.13 6.34,-1.61 14.24,-2.42 23.7,-2.42l0 -4.84c0,-5.37 -1.18,-9.52 -3.55,-12.41 -2.26,-2.69 -5.64,-4.04 -10.16,-4.04 -3.43,0 -6.13,0.38 -8.06,1.13 -2.48,0.97 -4.36,1.83 -5.64,2.58l-4.36 2.42c-1.18,0.75 -2.64,1.13 -4.36,1.13 -1.4,0 -2.57,-0.33 -3.54,-0.97 -0.65,-0.43 -1.4,-1.3 -2.26,-2.58l-3.71 -6.28c9.68,-8.82 21.12,-13.22 34.35,-13.22 4.84,0 9.2,0.8 13.06,2.42 3.76,1.61 6.94,3.81 9.51,6.61 2.91,3.33 4.95,6.72 6.13,10.16 1.29,3.87 1.94,8.17 1.94,12.9l0 36.61 4.36 0.8 1.77 0.32zm-25.48 -20.64c-6.02,0 -10.86,0.38 -14.51,1.13 -3.97,0.86 -7.15,1.83 -9.52,2.9 -2.37,1.07 -4.03,2.37 -4.99,3.87 -0.97,1.4 -1.45,3.07 -1.45,5 0,3.65 1.02,6.18 3.07,7.58 2.15,1.5 4.83,2.26 8.06,2.26 2.04,0 3.93,-0.16 5.64,-0.48 1.83,-0.32 3.5,-0.91 5,-1.77 1.94,-1.08 3.39,-1.99 4.36,-2.74 1.5,-1.18 2.95,-2.47 4.35,-3.86l0 -13.87zm90.3 -48.86c4.19,0 7.58,0.91 10.16,2.74l-2.58 15c-0.11,0.97 -0.43,1.61 -0.97,1.94 -0.65,0.43 -1.4,0.65 -2.26,0.65 -0.76,0 -1.83,-0.16 -3.23,-0.48 -1.93,-0.43 -3.81,-0.65 -5.65,-0.65 -4.19,0 -7.74,1.13 -10.64,3.39 -2.69,2.04 -5.16,5.43 -7.42,10.16l0 35.48 8.06 1.45c2.69,0.64 4.03,2.31 4.03,5l0 9.51 -44.18 0 0 -9.51c0,-2.69 1.34,-4.36 4.04,-5l8.06 -1.45 0 -50.79 -8.06 -1.45c-2.69,-0.65 -4.04,-2.31 -4.04,-5l0 -9.51 23.86 0c2.04,0 3.44,0.37 4.19,1.13 0.76,0.75 1.3,2.04 1.61,3.86l1.29 10c2.9,-5.27 6.35,-9.3 10.32,-12.09 4.09,-2.9 8.55,-4.36 13.39,-4.36zm89.49 69.5c2.69,0.65 4.03,2.31 4.03,5l0 9.51 -19.02 0c-2.04,0 -3.55,-0.27 -4.51,-0.8 -1.08,-0.43 -1.88,-1.62 -2.42,-3.55l-1.78 -5.81c-2.15,2.04 -4.19,3.71 -6.12,5 -1.51,1.08 -3.61,2.26 -6.29,3.55 -1.94,0.86 -4.19,1.55 -6.78,2.09 -2.68,0.54 -5.37,0.81 -8.06,0.81 -3.54,0 -6.77,-0.48 -9.67,-1.45 -3.11,-1.08 -5.64,-2.48 -7.58,-4.19 -2.26,-2.04 -3.93,-4.41 -5,-7.09 -1.18,-2.91 -1.77,-6.13 -1.77,-9.68 0,-3.23 0.81,-6.34 2.41,-9.35 1.61,-3.11 4.36,-5.85 8.23,-8.22 4.08,-2.58 9.13,-4.63 15.16,-6.13 6.34,-1.61 14.24,-2.42 23.7,-2.42l0 -4.84c0,-5.37 -1.18,-9.52 -3.54,-12.41 -2.26,-2.69 -5.65,-4.04 -10.16,-4.04 -3.44,0 -6.13,0.38 -8.06,1.13 -2.47,0.97 -4.35,1.83 -5.64,2.58l-4.36 2.42c-1.18,0.75 -2.64,1.13 -4.35,1.13 -1.4,0 -2.58,-0.33 -3.55,-0.97 -0.65,-0.43 -1.4,-1.3 -2.26,-2.58l-3.71 -6.28c9.68,-8.82 21.12,-13.22 34.35,-13.22 4.84,0 9.2,0.8 13.06,2.42 3.76,1.61 6.94,3.81 9.51,6.61 2.91,3.33 4.95,6.72 6.13,10.16 1.29,3.87 1.94,8.17 1.94,12.9l0 36.61 4.36 0.8 1.77 0.32zm-25.48 -20.64c-6.02,0 -10.86,0.38 -14.51,1.13 -3.97,0.86 -7.15,1.83 -9.51,2.9 -2.37,1.07 -4.03,2.37 -5,3.87 -0.97,1.4 -1.45,3.07 -1.45,5 0,3.65 1.02,6.18 3.07,7.58 2.15,1.5 4.83,2.26 8.06,2.26 2.04,0 3.93,-0.16 5.65,-0.48 1.83,-0.32 3.5,-0.91 5,-1.77 1.94,-1.08 3.39,-1.99 4.36,-2.74 1.5,-1.18 2.95,-2.47 4.35,-3.86l0 -13.87z"/>
  </g>
 </g>
</svg>
