<svg width="154" height="40" viewBox="0 0 154 40" fill="none" xmlns="http://www.w3.org/2000/svg">
<path d="M28.348 0C12.8086 0 0.223633 8.26849 0.223633 18.3979C0.223633 18.6665 0.223633 19.3763 0.223633 19.4722C0.223633 30.2155 11.2355 38.9252 28.348 38.9252C45.5757 38.9252 56.4724 30.2155 56.4724 19.4722C56.4724 19.0885 56.4724 18.8775 56.4724 18.3979C56.4532 8.26849 43.8682 0 28.348 0ZM28.348 35.6831C13.4225 35.6831 1.31715 27.9325 1.31715 18.3787C1.31715 8.82484 13.4225 1.09351 28.348 1.09351C43.2735 1.09351 55.3789 8.84403 55.3789 18.3979C55.3789 27.9325 43.2735 35.6831 28.348 35.6831Z" fill="black"/>
<path d="M43.3887 20.2012C40.722 17.8799 34.5638 12.5083 32.8948 11.2613C31.9356 10.5515 31.2833 10.1678 30.7269 9.99511C30.4776 9.91838 30.113 9.82245 29.6526 9.82245C29.2306 9.82245 28.7701 9.89919 28.2905 10.0527C27.2162 10.398 26.1419 11.2421 25.1059 12.067L25.0484 12.1054C24.0699 12.8728 23.0724 13.6785 22.3242 13.832C21.998 13.9087 21.6527 13.9471 21.3074 13.9471C20.4633 13.9471 19.6959 13.6977 19.4081 13.3332C19.3698 13.2757 19.3889 13.1797 19.5041 13.0263L19.5232 13.0071L21.8637 10.4747C23.7054 8.63302 25.432 6.90642 29.4416 6.8105C29.4991 6.8105 29.5759 6.8105 29.6334 6.8105C32.1274 6.8105 34.6022 7.92319 34.89 8.05748C37.2305 9.18937 39.6285 9.7649 42.0458 9.78408C44.5589 9.78408 47.168 9.17018 49.9114 7.90401C49.6044 7.65461 49.2975 7.40521 48.9522 7.15582C46.5541 8.19178 44.252 8.72894 42.0458 8.72894C39.782 8.72894 37.5374 8.19178 35.3504 7.11745C35.2353 7.05989 32.4919 5.77454 29.6334 5.77454C29.5567 5.77454 29.48 5.77454 29.4032 5.77454C26.0459 5.85127 24.1659 7.04071 22.8805 8.09585C21.6527 8.13422 20.5784 8.42199 19.6192 8.69057C18.775 8.92078 18.046 9.13181 17.3362 9.13181C17.0484 9.13181 16.5113 9.11263 16.4729 9.11263C15.648 9.09344 11.5233 8.07667 8.2236 6.82968C7.87828 7.05989 7.57133 7.30929 7.24519 7.55869C10.6792 8.95915 14.8614 10.0527 16.1851 10.1486C16.5496 10.1678 16.9525 10.2061 17.3362 10.2061C18.1995 10.2061 19.082 9.95674 19.9261 9.72653C20.4249 9.59224 20.9813 9.43876 21.5568 9.32366C21.4033 9.47713 21.2498 9.63061 21.0964 9.78408L18.6983 12.3356C18.5065 12.5275 18.1036 13.0263 18.3722 13.6593C18.4873 13.9087 18.6983 14.1581 19.0053 14.35C19.5808 14.7337 20.5976 14.9831 21.5376 14.9831C21.9021 14.9831 22.2282 14.9447 22.5544 14.868C23.552 14.6377 24.6071 13.8128 25.7198 12.9303C26.6023 12.2205 27.8685 11.338 28.8277 11.0694C29.0963 10.9927 29.4224 10.9543 29.691 10.9543C29.7677 10.9543 29.8445 10.9543 29.9212 10.9735C30.5543 11.0503 31.1682 11.2613 32.2617 12.0862C34.2185 13.5634 42.8707 21.1413 42.9666 21.1988C42.9666 21.1988 43.523 21.6784 43.4846 22.465C43.4654 22.9062 43.216 23.2899 42.794 23.5777C42.4295 23.8079 42.0458 23.923 41.6621 23.923C41.0865 23.923 40.6837 23.6544 40.6645 23.6353C40.6261 23.6161 37.6717 20.8919 36.5782 19.971C36.4055 19.8175 36.2329 19.7024 36.0602 19.7024C35.9643 19.7024 35.8876 19.7408 35.83 19.8175C35.6574 20.0286 35.8492 20.3163 36.0794 20.5082L39.5518 23.9998C39.5518 23.9998 39.993 24.4026 40.0314 24.9398C40.0506 25.5153 39.782 25.9949 39.2065 26.3786C38.8036 26.6472 38.3815 26.7815 37.9787 26.7815C37.4415 26.7815 37.077 26.5321 36.9811 26.4745L36.4823 25.9758C35.5806 25.0741 34.6406 24.1532 33.9499 23.5777C33.7773 23.4434 33.6046 23.3091 33.432 23.3091C33.3552 23.3091 33.2785 23.3475 33.2209 23.405C33.1442 23.501 33.0866 23.6544 33.2785 23.9038C33.3552 24.0189 33.4511 24.0957 33.4511 24.0957L35.9835 26.935C36.0027 26.9542 36.5015 27.5489 36.041 28.1436L35.9451 28.2587C35.8684 28.3354 35.7916 28.4122 35.7149 28.4889C35.2928 28.8342 34.6981 28.8726 34.4871 28.8726C34.372 28.8726 34.2569 28.8534 34.1418 28.8342C33.8924 28.7959 33.7197 28.7191 33.643 28.6232L33.6046 28.5848C33.4703 28.4505 32.185 27.146 31.1298 26.2635C30.9955 26.1484 30.8229 25.9949 30.631 25.9949C30.5351 25.9949 30.4584 26.0333 30.4008 26.0909C30.1898 26.3211 30.4967 26.6664 30.631 26.7815L32.7797 29.1604C32.7797 29.1796 32.7413 29.2371 32.7029 29.3138C32.6262 29.429 32.3576 29.6783 31.5903 29.7743C31.4943 29.7935 31.3984 29.7935 31.3025 29.7935C30.4967 29.7935 29.6334 29.4098 29.1922 29.1604C29.4032 28.7383 29.4991 28.2587 29.4991 27.7983C29.4991 26.0141 28.0603 24.5753 26.2762 24.5753C26.2378 24.5753 26.1994 24.5753 26.1611 24.5753C26.2186 23.7695 26.1035 22.2348 24.5304 21.5633C24.0699 21.3715 23.6287 21.2756 23.1875 21.2756C22.8421 21.2756 22.516 21.3331 22.2091 21.4482C21.8829 20.8151 21.3458 20.3547 20.6359 20.1053C20.2522 19.971 19.8494 19.8943 19.4849 19.8943C18.8326 19.8943 18.2187 20.0861 17.6815 20.4698C17.1636 19.8367 16.377 19.453 15.5712 19.453C14.8614 19.453 14.1708 19.7408 13.6528 20.2396C12.9813 19.7216 10.3147 18.0334 3.19728 16.4219C2.85196 16.3452 2.0654 16.115 1.5666 15.9807C1.48986 16.3643 1.43231 16.748 1.37476 17.1509C1.37476 17.1509 2.69848 17.4579 2.94788 17.5154C10.238 19.1269 12.636 20.8151 13.0389 21.1413C12.9046 21.4674 12.8279 21.8319 12.8279 22.1964C12.8279 23.6928 14.0557 24.9206 15.5521 24.9206C15.7247 24.9206 15.8974 24.9014 16.0509 24.8822C16.2811 25.9949 17.0101 26.8199 18.1036 27.2611C18.4297 27.3762 18.7559 27.453 19.082 27.453C19.293 27.453 19.5041 27.4338 19.6959 27.3762C19.9069 27.8942 20.3674 28.5465 21.3841 28.9685C21.7486 29.122 22.1131 29.1987 22.4585 29.1987C22.7462 29.1987 23.034 29.1412 23.2834 29.0453C23.7822 30.2539 24.9524 31.0404 26.257 31.0404C27.1203 31.0404 27.9644 30.6951 28.5591 30.062C29.0771 30.3498 30.1706 30.8678 31.2833 30.8678C31.4176 30.8678 31.5519 30.8486 31.7054 30.8486C32.7989 30.7143 33.3168 30.2731 33.5471 29.9469C33.5854 29.8894 33.6238 29.8318 33.6622 29.7551C33.9308 29.8318 34.1993 29.8894 34.5255 29.8894C35.1202 29.8894 35.6957 29.6783 36.2904 29.2563C36.866 28.8342 37.2688 28.2587 37.3264 27.7407V27.7215C37.5182 27.7599 37.7101 27.7791 37.9211 27.7791C38.535 27.7791 39.1489 27.5872 39.7244 27.2036C40.8371 26.4745 41.0482 25.5153 41.029 24.8822C41.2208 24.9206 41.4319 24.9398 41.6237 24.9398C42.1992 24.9398 42.7748 24.7671 43.3119 24.4218C44.0026 23.9806 44.4246 23.2899 44.4822 22.5034C44.5206 21.9662 44.3863 21.429 44.1177 20.9494C45.9978 20.1437 50.2951 18.5706 55.3598 17.4387C55.3214 17.055 55.2639 16.6521 55.2063 16.2684C49.0865 17.7073 44.5206 19.6833 43.3887 20.2012ZM26.2762 30.0812C25.0867 30.0812 24.1275 29.1604 24.07 27.9709C24.07 27.875 24.0508 27.6064 23.8206 27.6064C23.7246 27.6064 23.6479 27.664 23.552 27.7407C23.2834 27.9901 22.9573 28.2203 22.4776 28.2203C22.2666 28.2203 22.0172 28.1628 21.7678 28.0669C20.5208 27.5681 20.5016 26.7048 20.54 26.3594C20.5592 26.2635 20.5592 26.1676 20.5016 26.0909L20.4249 26.0141H20.3482C20.2906 26.0141 20.2139 26.0333 20.1371 26.11C19.7726 26.3594 19.4273 26.4937 19.0628 26.4937C18.871 26.4937 18.6599 26.4554 18.4681 26.3786C16.8182 25.7264 16.9525 24.1724 17.0293 23.712C17.0484 23.6161 17.0101 23.5393 16.9525 23.501L16.8374 23.405L16.7223 23.501C16.3962 23.8079 15.9741 23.9806 15.5329 23.9806C14.5928 23.9806 13.8255 23.2132 13.8255 22.2732C13.8255 21.3331 14.5928 20.5657 15.5521 20.5657C16.4154 20.5657 17.1444 21.218 17.2403 22.0621L17.2978 22.5226L17.5472 22.1389C17.5664 22.1005 18.2762 21.0454 19.5424 21.0454C19.7918 21.0454 20.0412 21.0837 20.2906 21.1605C21.3074 21.4674 21.48 22.3883 21.4992 22.7719C21.5184 23.0022 21.6719 23.0022 21.7103 23.0022C21.8062 23.0022 21.8637 22.9446 21.9021 22.9062C22.094 22.7144 22.516 22.3691 23.1683 22.3691C23.4752 22.3691 23.7822 22.4458 24.1083 22.5801C25.7198 23.2707 24.9908 25.3235 24.9908 25.3427C24.8565 25.688 24.8373 25.8415 24.9716 25.9182L25.0292 25.9566H25.0675C25.1443 25.9566 25.2402 25.9182 25.3745 25.8798C25.5855 25.8031 25.9308 25.688 26.2378 25.688C27.4464 25.7072 28.444 26.6856 28.444 27.8942C28.4632 29.1028 27.4848 30.0812 26.2762 30.0812Z" fill="black"/>
<path d="M152.26 6.6762C151.243 5.41003 149.709 4.77694 147.637 4.77694C145.565 4.77694 144.03 5.41003 143.013 6.6762C141.997 7.94237 141.498 9.45794 141.498 11.1845C141.498 12.9495 141.997 14.4651 143.013 15.7121C144.03 16.9591 145.565 17.5921 147.637 17.5921C149.709 17.5921 151.243 16.9591 152.26 15.7121C153.277 14.4651 153.776 12.9495 153.776 11.1845C153.795 9.43876 153.277 7.94237 152.26 6.6762ZM149.747 13.9663C149.248 14.6186 148.558 14.9447 147.637 14.9447C146.716 14.9447 146.006 14.6186 145.507 13.9663C145.009 13.314 144.759 12.374 144.759 11.1845C144.759 9.97592 145.009 9.05507 145.507 8.4028C146.006 7.75053 146.716 7.42439 147.637 7.42439C148.558 7.42439 149.268 7.75053 149.747 8.4028C150.246 9.05507 150.495 9.97592 150.495 11.1845C150.495 12.3932 150.246 13.314 149.747 13.9663Z" fill="black"/>
<path d="M126.323 5.60187C125.287 5.08389 124.117 4.81531 122.793 4.81531C120.759 4.81531 119.321 5.35247 118.476 6.40762C117.959 7.07907 117.652 7.96156 117.594 9.0167H120.644C120.721 8.55627 120.875 8.19177 121.086 7.904C121.393 7.5395 121.93 7.34765 122.697 7.34765C123.369 7.34765 123.886 7.44358 124.232 7.63542C124.577 7.82727 124.75 8.17259 124.75 8.6522C124.75 9.05507 124.52 9.36202 124.078 9.55386C123.829 9.66897 123.407 9.76489 122.812 9.82245L121.738 9.95674C120.51 10.1102 119.589 10.3788 118.956 10.7241C117.805 11.3956 117.229 12.4699 117.229 13.9471C117.229 15.0982 117.594 15.9807 118.304 16.5946C119.014 17.2085 119.934 17.477 121.028 17.5346C127.915 17.8415 127.838 13.9087 127.896 13.0838V8.57546C127.877 7.11744 127.359 6.13903 126.323 5.60187ZM124.731 12.4891C124.711 13.5442 124.404 14.2732 123.829 14.6761C123.253 15.079 122.62 15.2708 121.93 15.2708C121.488 15.2708 121.124 15.1557 120.817 14.9063C120.51 14.6761 120.357 14.2732 120.357 13.7361C120.357 13.1222 120.606 12.6809 121.105 12.3932C121.393 12.2205 121.891 12.0862 122.563 11.9711L123.273 11.8368C123.637 11.7601 123.906 11.7025 124.117 11.6258C124.328 11.549 124.52 11.4531 124.731 11.3188V12.4891Z" fill="black"/>
<path d="M110.63 7.52031C111.417 7.52031 111.992 7.76971 112.376 8.24932C112.625 8.61383 112.798 9.0167 112.855 9.45794H116.251C116.059 7.75053 115.465 6.54191 114.448 5.87045C113.431 5.199 112.126 4.85368 110.534 4.85368C108.654 4.85368 107.196 5.42921 106.141 6.58028C105.086 7.73134 104.549 9.32365 104.549 11.3956C104.549 13.2181 105.028 14.7145 105.987 15.8655C106.947 17.0166 108.443 17.5921 110.496 17.5921C112.529 17.5921 114.083 16.9015 115.119 15.5202C115.771 14.6761 116.136 13.7553 116.213 12.8152H112.836C112.76 13.4483 112.568 13.9663 112.242 14.3692C111.915 14.772 111.359 14.9639 110.592 14.9639C109.498 14.9639 108.75 14.4651 108.347 13.4675C108.136 12.9303 108.021 12.2205 108.021 11.338C108.021 10.4172 108.136 9.66897 108.347 9.11262C108.75 8.05748 109.517 7.52031 110.63 7.52031Z" fill="black"/>
<path d="M103.628 4.87286C96.6446 4.87286 97.0666 11.0503 97.0666 11.0503V17.3236H100.232V11.4339C100.232 10.4747 100.347 9.76489 100.597 9.28528C101.038 8.46035 101.882 8.05748 103.148 8.05748C103.244 8.05748 103.378 8.05748 103.532 8.07666C103.685 8.07666 103.858 8.09585 104.069 8.11503V4.89205C103.935 4.89205 103.839 4.87286 103.8 4.87286C103.743 4.87286 103.685 4.87286 103.628 4.87286Z" fill="black"/>
<path d="M92.0019 14.043C91.8677 14.2349 91.7334 14.3883 91.5607 14.5226C91.1195 14.8871 90.5056 15.0022 89.7957 15.0022C89.1243 15.0022 88.5871 14.9063 88.1075 14.5994C87.3209 14.1198 86.8797 13.2948 86.8222 12.0862H95.5894C95.6086 11.0503 95.5703 10.2445 95.4935 9.70734C95.34 8.7673 95.0331 7.94237 94.5343 7.21336C93.9971 6.40762 93.2873 5.8129 92.4624 5.42921C91.6183 5.06471 90.6782 4.87286 89.6423 4.87286C87.8773 4.87286 86.4385 5.42921 85.345 6.54191C84.2323 7.6546 83.6951 9.24691 83.6951 11.338C83.6951 13.5634 84.309 15.1749 85.5368 16.1533C86.7646 17.1317 88.1651 17.6305 89.7766 17.6305C91.7142 17.6305 93.2298 17.055 94.3041 15.8847C94.8796 15.2708 95.2441 14.6569 95.3976 14.0622L92.0019 14.043ZM87.743 8.13422C88.1842 7.67379 88.8173 7.44358 89.6231 7.44358C90.3713 7.44358 90.9852 7.65461 91.484 8.09585C91.9828 8.51791 92.2705 9.17018 92.3281 9.99511H86.9181C87.0332 9.22773 87.3018 8.59464 87.743 8.13422Z" fill="black"/>
<path d="M82.3905 17.3044H79.4937V10.0143C79.4937 9.34284 79.2827 7.76971 77.3642 7.76971C76.0981 7.76971 75.1772 8.69057 75.1772 10.0143V17.3044H72.2803V10.0143C72.2803 9.34284 72.0885 7.76971 70.1701 7.76971C68.8847 7.76971 67.983 8.69057 67.983 10.0143V17.3044H65.0862V10.1102C65.0862 7.09826 67.0814 4.83449 70.1701 4.83449C71.7048 4.83449 72.9518 5.48676 73.7575 6.50354C74.6208 5.46758 75.887 4.83449 77.345 4.83449C80.5105 4.83449 82.3714 7.02152 82.3714 10.1102L82.3905 17.3044Z" fill="black"/>
<path d="M140.558 1.05516C140.558 1.05516 137.373 0.709839 137.373 3.28055V6.6762C137.028 6.10067 136.567 5.65942 135.992 5.35247C135.436 5.02634 134.783 4.87286 134.054 4.87286C132.481 4.87286 131.215 5.46758 130.275 6.63783C129.335 7.80808 128.855 9.5155 128.855 11.5682C128.855 13.3524 129.335 14.8104 130.294 15.9423C131.253 17.0742 133.133 17.573 134.802 17.573C140.635 17.573 140.558 12.5658 140.558 12.5658V1.05516ZM136.759 13.9855C136.299 14.6569 135.627 14.9831 134.726 14.9831C133.843 14.9831 133.172 14.6569 132.731 13.9855C132.289 13.314 132.078 12.3548 132.078 11.2421C132.078 10.2061 132.289 9.34284 132.731 8.6522C133.153 7.96156 133.843 7.61624 134.745 7.61624C135.34 7.61624 135.877 7.80808 136.337 8.19177C137.085 8.82486 137.45 9.95674 137.45 11.4339C137.45 12.4699 137.22 13.3332 136.759 13.9855Z" fill="black"/>
<path d="M88.2227 37.4096C88.2227 37.8317 88.0692 38.1962 87.7622 38.5032C87.4553 38.8101 87.0716 38.9636 86.6495 38.9636H85.0764V27.9709C85.0764 25.8414 85.8054 24.4985 86.9757 23.5777C87.7622 22.9829 88.9325 22.4074 91.1195 22.4074C92.5967 22.4074 94.3233 22.9829 95.2634 24.1148C96.3185 25.4002 96.7406 26.8198 96.7406 28.6999C96.7406 30.6375 96.2801 32.1915 95.3401 33.3809C94.4192 34.5512 93.2106 35.1267 91.7526 35.1267C90.9852 35.1267 90.2946 34.9924 89.6999 34.7238C89.086 34.4169 88.5872 33.9373 88.2035 33.3042L88.2227 37.4096ZM93.5176 28.8342C93.5176 27.6448 93.2874 26.7239 92.8269 26.0716C92.3665 25.4385 91.695 25.1124 90.8317 25.1124C89.9876 25.1124 89.3354 25.4385 88.8749 26.0716C88.4337 26.6472 88.2227 27.568 88.2227 28.8342C88.2227 30.0044 88.4529 30.8677 88.9133 31.4433C89.3737 32.0955 90.0452 32.4025 90.9085 32.4025C91.7142 32.4025 92.3473 32.0764 92.8077 31.4433C93.2874 30.8102 93.5176 29.9469 93.5176 28.8342Z" fill="black"/>
<path d="M117.709 34.1099V33.3234C117.153 34.1867 116.424 34.7046 115.484 34.9348C114.563 35.1459 113.623 35.0691 112.721 34.7046C111.8 34.3401 111.014 33.6495 110.362 32.6711C109.709 31.6735 109.383 30.3689 109.383 28.7383C109.383 26.839 109.824 25.3043 110.688 24.134C111.551 22.9638 112.951 22.4266 114.87 22.369C116.769 22.3115 117.863 22.7527 118.937 23.5585C120.107 24.4601 120.817 25.8222 120.817 27.9709V34.4361C120.817 36.4888 119.378 40.3065 114.87 39.9804C112.069 39.7693 110.534 38.6374 109.652 36.0284H112.99C113.239 36.4504 113.604 36.7766 114.102 37.0068C114.601 37.237 115.1 37.2945 115.599 37.1986C116.098 37.0835 116.558 36.7957 116.98 36.2969C117.402 35.8365 117.652 35.0883 117.709 34.1099ZM112.491 28.8342C112.491 30.9445 113.105 32.1147 114.314 32.3449C115.522 32.5752 116.424 32.2874 117.019 31.5008C117.287 31.1747 117.498 30.6375 117.613 29.9277C117.728 29.2179 117.748 28.4889 117.632 27.7982C117.536 27.0884 117.268 26.4745 116.884 25.9182C116.481 25.3618 115.906 25.0932 115.138 25.0932C114.102 25.0932 113.412 25.4769 113.028 26.2443C112.683 26.9925 112.491 27.8558 112.491 28.8342Z" fill="black"/>
<path d="M106.678 23.2515C105.642 22.7335 104.472 22.465 103.148 22.465C101.115 22.465 99.6758 23.0021 98.8317 24.0573C98.3137 24.7287 98.0067 25.6112 97.9492 26.6664H101C101.076 26.2059 101.23 25.8222 101.441 25.5537C101.748 25.1892 102.285 24.9973 103.033 24.9973C103.705 24.9973 104.222 25.0932 104.568 25.2851C104.913 25.4769 105.086 25.8222 105.086 26.3018C105.086 26.7047 104.856 27.0117 104.414 27.2035C104.165 27.3186 103.743 27.4145 103.148 27.4721L102.074 27.6064C100.846 27.7599 99.9252 28.0284 99.2921 28.3738C98.141 29.0452 97.5655 30.1196 97.5655 31.5968C97.5655 32.7478 97.93 33.6303 98.6398 34.2442C99.3496 34.8581 100.27 35.1267 101.364 35.1842C108.251 35.4912 108.174 31.5584 108.232 30.7335V26.2059C108.232 24.7479 107.714 23.7695 106.678 23.2515ZM105.086 30.1196C105.067 31.1747 104.76 31.9037 104.184 32.3066C103.609 32.7094 102.976 32.9013 102.285 32.9013C101.844 32.9013 101.479 32.7862 101.172 32.5368C100.865 32.3066 100.712 31.9037 100.712 31.3665C100.712 30.7718 100.961 30.3114 101.46 30.0236C101.748 29.851 102.227 29.7167 102.918 29.6016L103.628 29.4673C103.992 29.3905 104.261 29.333 104.472 29.2563C104.683 29.1795 104.875 29.0836 105.086 28.9493V30.1196Z" fill="black"/>
<path d="M132.788 24.2491C131.771 22.9829 130.237 22.3499 128.165 22.3499C126.093 22.3499 124.558 22.9829 123.541 24.2491C122.524 25.5153 122.026 27.0117 122.026 28.7575C122.026 30.5224 122.524 32.038 123.541 33.285C124.558 34.532 126.093 35.1651 128.165 35.1651C130.237 35.1651 131.771 34.532 132.788 33.285C133.805 32.038 134.304 30.5224 134.304 28.7575C134.304 27.0117 133.805 25.5153 132.788 24.2491ZM130.275 31.5392C129.776 32.1915 129.086 32.5176 128.165 32.5176C127.244 32.5176 126.534 32.1915 126.035 31.5392C125.536 30.8869 125.287 29.9661 125.287 28.7575C125.287 27.5488 125.536 26.628 126.035 25.9757C126.534 25.3234 127.244 24.9973 128.165 24.9973C129.086 24.9973 129.795 25.3234 130.275 25.9757C130.774 26.628 131.023 27.5488 131.023 28.7575C131.004 29.9469 130.774 30.8869 130.275 31.5392Z" fill="black"/>
</svg>
